<?xml version="1.0" encoding="utf-8"?>
<!-- Generator: Adobe Illustrator 21.1.0, SVG Export Plug-In . SVG Version: 6.00 Build 0)  -->
<svg version="1.1" id="Layer_1" xmlns="http://www.w3.org/2000/svg" xmlns:xlink="http://www.w3.org/1999/xlink" x="0px" y="0px"
	 viewBox="0 0 4068.4 3531.1" style="enable-background:new 0 0 4068.4 3531.1;" xml:space="preserve">
<style type="text/css">
	.st0{fill:#2D937D;}
	.st1{fill:#cec7bc;}
</style>
<title>logo-dark</title>
<path class="st0" d="M887.9,2269.4H1085l-98.6-222.9L887.9,2269.4z M791.2,2489.5H671.4l304-653.1h25.8l304,653.1h-122.6
	l-57.1-128.9H847.4L791.2,2489.5z"/>
<polygon class="st0" points="1501.3,1842 1615.5,1842 1615.5,2384.5 1922.3,2384.5 1922.3,2489.5 1501.3,2489.5 "/>
<polygon class="st0" points="2030.1,1842 2574.4,1842 2574.4,1947 2361.6,1947 2361.6,2489.5 2246.5,2489.5 2246.5,1947 
	2030.1,1947 "/>
<path class="st0" d="M3051.5,2399.3c125.3,0,222.9-100.4,222.9-232.1c0-132.6-93-233-222.9-233c-128,0-222.9,100.4-222.9,233
	C2828.6,2297,2926.3,2399.3,3051.5,2399.3 M3050.6,1831c200.8,0,346.3,140.9,346.3,334.3c0,190.7-148.3,334.4-346.3,334.4
	s-345.4-142.8-345.4-334.4C2705.2,1978.3,2856.2,1831,3050.6,1831"/>
<path class="st1" d="M26.6,1665.6h4015.2c14.7,0,26.6-11.9,26.6-26.6c0-14.7-11.9-26.6-26.6-26.6H2778.4V830.3
	c0-14.7-11.9-26.6-26.6-26.5c-14.6,0-26.5,11.9-26.5,26.5v782.1h-186.4V664.3c0-14.7-11.8-26.6-26.5-26.6
	c-14.7,0-26.6,11.8-26.6,26.5c0,0,0,0.1,0,0.1v948.1h-185.9V431.3c0-14.7-11.9-26.6-26.5-26.6c-14.7,0-26.6,11.9-26.6,26.5
	c0,0,0,0.1,0,0.1v1181.1h-185.9V26.6c0-14.7-11.9-26.6-26.6-26.6s-26.6,11.9-26.6,26.6v1585.8h-185.9V431.3
	c0-14.7-11.9-26.6-26.6-26.6c-14.7,0-26.6,11.9-26.6,26.6v1181.1h-185.9V664.3c0-14.7-11.9-26.6-26.6-26.6
	c-14.7,0-26.6,11.9-26.6,26.6v948.1h-185.9V830.3c0-14.7-11.9-26.6-26.6-26.6c-14.7,0-26.6,11.9-26.6,26.6v782.1H26.6
	c-14.7,0-26.6,11.9-26.6,26.6C0,1653.7,11.9,1665.6,26.6,1665.6"/>
<path class="st1" d="M4041.8,2662.9H26.6c-14.7,0-26.6,11.9-26.6,26.5s11.9,26.6,26.5,26.6c0,0,0.1,0,0.1,0h1263.9v386.1
	c0,14.7,11.9,26.6,26.6,26.6c14.7,0,26.6-11.9,26.6-26.6V2716h185.9v470.1c0,14.7,11.9,26.6,26.6,26.6c14.7,0,26.6-11.9,26.6-26.6
	V2716h185.9v606.2c0,14.7,11.9,26.6,26.6,26.6c14.7,0,26.6-11.9,26.6-26.6V2716h186.4v788.5c0,14.7,11.9,26.6,26.5,26.6
	c14.7,0,26.6-11.9,26.6-26.5c0,0,0-0.1,0-0.1V2716h185.9v606.2c0,14.7,11.9,26.6,26.5,26.6c14.7,0,26.6-11.9,26.6-26.5
	c0,0,0-0.1,0-0.1V2716h185.9v470.1c0,14.7,11.9,26.6,26.6,26.5c14.6,0,26.5-11.9,26.5-26.5V2716h185.9v386.1
	c0,14.7,11.9,26.6,26.5,26.6c14.7,0,26.6-11.9,26.6-26.5c0,0,0-0.1,0-0.1V2716h1263.4c14.7,0,26.6-11.9,26.5-26.6
	C4068.3,2674.7,4056.4,2662.9,4041.8,2662.9"/>
</svg>
