<?xml version="1.0" encoding="utf-8"?>
<!-- Generator: Adobe Illustrator 22.1.0, SVG Export Plug-In . SVG Version: 6.00 Build 0)  -->
<svg version="1.1" id="Layer_1" xmlns="http://www.w3.org/2000/svg" xmlns:xlink="http://www.w3.org/1999/xlink" x="0px" y="0px"
	 viewBox="0 0 229 227.3" style="enable-background:new 0 0 229 227.3;" xml:space="preserve">
<style type="text/css">
	.st0{display:none;}
	.st1{fill:#FFFFFF;}
</style>
<g id="Layer_1_1_" class="st0">
	
		<image style="display:inline;overflow:visible;enable-background:new    ;" width="1500" height="975" xlink:href="21ADF387.png"  transform="matrix(0.24 0 0 0.24 -120.3334 -4.3333)">
	</image>
</g>
<g id="A">
	<path class="st1" d="M161.1,165.5c0,0-0.4-1.2-2-1.3c0,0-9.4-0.9-12.9-8.7L129,94.4l-13.9-49.7c0,0-0.6-1.9-1.4-1.7
		c0,0-1.1-0.5-2.5,1.9l-7.7,8.6l-6.9,6.9c0,0-2.8,2.1-1.9,3.6c0.8,1.5,2.3,3.8,2.3,3.8s1.4,1.5,0.1,3.3S85.2,87.7,85.2,87.7L48,139
		c0,0-15.2,19.7-27.1,23.2c0,0-4.4,1.2-8.3,1.7c0,0-2.6,0.4-2.6,2.1s2.6,1.9,2.6,1.9h48.2c0,0,2.8,0.1,2.4-1.8c0,0,0.2-1.2-2.9-1.9
		s-6.8-3.1-6.8-3.1s-6.4-2.6-4.9-11.5S64.2,124,64.2,124h49.5l6,20l1.6,5.4c0,0,2,6.6,0,9.1c0,0-1.7,4.5-11.3,5.2
		c0,0-4.8-0.1-5.3,2.3s6.4,1.7,6.4,1.7h48.8C159.8,168,162.4,167.9,161.1,165.5z M66.6,120.2l32.8-45.8l12.8,45.8H66.6z"/>
</g>
<g id="spikes">
	<polygon id="spike" class="st1" points="107.9,179.4 116.1,179.4 112,217.5 	"/>
	<polygon id="spike_1_" class="st1" points="136.4,174.8 143.9,171.3 156.4,207.5 	"/>
	<polygon id="spike_2_" class="st1" points="160,159.6 165.6,153.6 190.7,182.6 	"/>
	<polygon id="spike_3_" class="st1" points="173.8,139.3 176.7,131.6 211,148.7 	"/>
	<polygon id="spike_4_" class="st1" points="179.4,112.7 179.4,104.4 217.5,108.6 	"/>
	<polygon id="spike_5_" class="st1" points="174.1,85.1 170.2,77.8 205.9,63.7 	"/>
	<polygon id="spike_6_" class="st1" points="156.4,60.6 149.8,55.7 176,27.7 	"/>
	<polygon id="spike_7_" class="st1" points="133.3,47.7 125.4,45.4 140.1,10 	"/>
	<polygon id="spike_8_" class="st1" points="104.6,44.3 96.5,45.5 95.1,7.2 	"/>
</g>
</svg>
